<?xml version="1.0" standalone="no"?>
<!DOCTYPE svg PUBLIC "-//W3C//DTD SVG 20010904//EN"
 "http://www.w3.org/TR/2001/REC-SVG-20010904/DTD/svg10.dtd">
<svg version="1.0" xmlns="http://www.w3.org/2000/svg"
 width="400.000000pt" height="400.000000pt" viewBox="0 0 400.000000 400.000000"
 preserveAspectRatio="xMidYMid meet">
<metadata>
Created by potrace 1.11, written by Peter Selinger 2001-2013
</metadata>
<g transform="translate(0.000000,400.000000) scale(0.100000,-0.100000)"
fill="#000000" stroke="none">
<path d="M1969 3917 c-49 -33 -72 -72 -138 -241 -156 -398 -320 -915 -461
-1456 -24 -91 -46 -168 -50 -173 -9 -11 -157 29 -213 58 -101 52 -196 15 -197
-76 0 -79 54 -109 241 -135 68 -9 126 -18 127 -20 2 -1 -12 -71 -31 -156 -123
-533 -173 -875 -164 -1138 5 -180 20 -242 73 -300 46 -51 95 -68 130 -45 46
30 49 54 19 141 -48 137 -46 364 5 614 52 253 215 829 238 837 20 8 375 -63
517 -103 370 -106 639 -245 816 -423 102 -103 159 -188 194 -290 37 -107 47
-124 78 -136 37 -12 76 9 100 55 42 82 -14 218 -149 359 -94 100 -200 178
-351 263 -287 160 -550 250 -1000 344 -73 15 -131 29 -130 31 2 1 41 10 88 19
182 34 458 140 674 258 534 292 854 737 759 1057 -23 77 -56 128 -124 193
-110 105 -253 153 -428 143 -159 -8 -265 -58 -387 -181 -225 -226 -455 -656
-670 -1251 -49 -136 -52 -142 -60 -133 -22 22 528 1532 630 1728 10 19 18 56
18 83 1 42 -3 53 -27 73 -35 31 -83 31 -127 1z m763 -502 c63 -22 141 -93 173
-159 69 -141 27 -363 -106 -560 -213 -314 -631 -562 -1081 -641 -112 -20 -111
-20 -103 13 14 57 178 458 249 609 228 484 401 692 622 748 71 18 179 13 246
-10z m-1338 -1677 c-19 -62 -34 -117 -34 -122 0 -5 -2 -7 -5 -4 -8 7 57 238
66 238 4 0 -8 -51 -27 -112z m-47 -160 c-3 -8 -6 -5 -6 6 -1 11 2 17 5 13 3
-3 4 -12 1 -19z m-10 -40 c-3 -8 -6 -5 -6 6 -1 11 2 17 5 13 3 -3 4 -12 1 -19z
m-112 -512 c-8 -64 -15 -135 -15 -157 0 -38 -12 -51 -26 -28 -6 11 46 312 53
305 2 -2 -3 -56 -12 -120z"/>
</g>
</svg>
