<?xml version="1.0" encoding="utf-8"?>
<!-- Generator: Adobe Illustrator 15.0.0, SVG Export Plug-In . SVG Version: 6.00 Build 0)  -->
<!DOCTYPE svg PUBLIC "-//W3C//DTD SVG 1.1//EN" "http://www.w3.org/Graphics/SVG/1.1/DTD/svg11.dtd">
<svg version="1.1" id="Layer_1" xmlns="http://www.w3.org/2000/svg" xmlns:xlink="http://www.w3.org/1999/xlink" x="0px" y="0px"
	 width="490.18px" height="171.689px" viewBox="2.998 26.442 490.18 171.689" enable-background="new 2.998 26.442 490.18 171.689"
	 xml:space="preserve">
<g>
	<path fill="none" d="M172.481,163.323c-0.818,2.211-1.386,3.98-1.698,5.311c-0.312,1.329-0.436,2.272-0.37,2.829
		c0.06,0.509,0.537,0.077,1.433-1.297c0.895-1.375,2.02-3.481,3.376-6.32c1.585-3.288,3.018-6.971,4.299-11.046
		c1.28-4.075,2.417-8.262,3.413-12.563c-1.953,3.756-3.855,7.634-5.709,11.636C175.372,155.872,173.791,159.689,172.481,163.323z"/>
	<path fill="none" d="M259.119,147.304l1.12-0.062c-0.22-2.652-0.29-5.534-0.211-8.646c0.079-3.111,0.292-6.379,0.639-9.803
		c-0.542,4.153-0.941,7.83-1.197,11.032C259.213,143.029,259.096,145.52,259.119,147.304z"/>
	<path fill="none" d="M263.495,108.583c-1.229,7.1-2.171,13.836-2.828,20.211c0.438-3.06,0.925-6.288,1.464-9.688
		c0.538-3.398,1.158-6.902,1.858-10.511c-0.093,0.011-0.175,0.01-0.247-0.006C263.671,108.574,263.588,108.573,263.495,108.583z"/>
	<path fill="none" d="M290.802,92.137c3.328-2.06,6.426-4.389,9.291-6.983c2.865-2.593,5.359-5.343,7.482-8.25
		c2.125-2.904,3.809-5.946,5.055-9.126c1.246-3.179,1.889-6.391,1.928-9.638c0.043-0.428,0.041-0.839-0.006-1.232
		c-0.047-0.395-0.092-0.775-0.135-1.147c-0.248-2.085-0.809-3.862-1.689-5.333c-0.879-1.47-1.959-2.658-3.238-3.564
		c-1.281-0.906-2.721-1.534-4.312-1.887c-1.592-0.351-3.221-0.429-4.891-0.231c-2.086,0.246-4.127,0.875-6.121,1.886
		s-3.779,2.409-5.354,4.192c-1.414,1.576-2.697,3.339-3.852,5.283c-1.157,1.947-2.221,3.964-3.197,6.054
		c-0.975,2.089-1.845,4.165-2.611,6.229c-0.767,2.065-1.446,3.978-2.036,5.739c-1.47,4.262-2.831,8.65-4.083,13.17
		c-1.252,4.518-2.385,9.046-3.399,13.58c3.576-0.751,7.167-1.88,10.771-3.388C284.007,95.983,287.476,94.199,290.802,92.137z"/>
	<path fill="none" d="M49.933,120.606c3.328-2.061,6.425-4.39,9.291-6.983c2.864-2.594,5.359-5.344,7.482-8.25
		c2.124-2.905,3.809-5.948,5.054-9.126c1.246-3.179,1.889-6.392,1.928-9.639c0.043-0.428,0.042-0.839-0.005-1.232
		c-0.047-0.395-0.092-0.775-0.136-1.147c-0.247-2.085-0.809-3.862-1.688-5.334c-0.879-1.469-1.96-2.658-3.241-3.563
		c-1.282-0.906-2.719-1.534-4.311-1.888c-1.593-0.351-3.223-0.429-4.892-0.231c-2.085,0.247-4.126,0.875-6.121,1.886
		s-3.78,2.41-5.354,4.193c-1.413,1.576-2.696,3.338-3.852,5.283c-1.156,1.946-2.221,3.964-3.197,6.053
		c-0.975,2.089-1.845,4.165-2.611,6.229c-0.767,2.065-1.445,3.979-2.036,5.739c-1.47,4.262-2.83,8.651-4.082,13.17
		c-1.253,4.519-2.385,9.046-3.398,13.582c3.577-0.751,7.167-1.88,10.772-3.388C43.139,124.452,46.606,122.668,49.933,120.606z"/>
	<path fill="none" d="M18.248,175.771l1.12-0.062c-0.22-2.652-0.291-5.534-0.211-8.646c0.078-3.11,0.291-6.378,0.639-9.803
		c-0.543,4.152-0.942,7.829-1.198,11.032C18.342,171.496,18.224,173.987,18.248,175.771z"/>
	<path fill="none" d="M22.623,137.05c-1.229,7.1-2.17,13.836-2.827,20.211c0.437-3.059,0.925-6.289,1.464-9.688
		c0.537-3.399,1.157-6.904,1.858-10.512c-0.093,0.012-0.175,0.011-0.247-0.006C22.799,137.041,22.716,137.039,22.623,137.05z"/>
	<polygon fill="none" points="380.31,95.624 380.238,96.198 381.38,95.145 380.429,94.835 	"/>
	<path fill="none" d="M372.05,106.258c-1.15,1.78-2.062,3.497-2.736,5.152c-0.676,1.652-0.943,3.059-0.807,4.218
		c0.109,0.927,0.439,1.544,0.994,1.855c0.605,0.352,1.33,0.231,2.178-0.362c0.846-0.595,1.758-1.724,2.736-3.391
		c0.977-1.666,1.961-3.874,2.953-6.623c0.99-2.749,1.885-6.118,2.68-10.113l0.07-0.009l0.008,0.069
		c-0.01-0.092-0.002-0.211,0.029-0.355c0.029-0.145,0.057-0.312,0.082-0.502c-1.434,1.391-2.869,2.971-4.305,4.738
		S373.203,104.476,372.05,106.258z"/>
	<path fill="none" d="M376.675,45.163c0.818-2.212,1.385-3.982,1.697-5.312c0.311-1.329,0.436-2.272,0.371-2.829
		c-0.062-0.51-0.539-0.078-1.434,1.297c-0.896,1.374-2.021,3.481-3.377,6.32c-1.586,3.289-3.018,6.971-4.299,11.046
		s-2.42,8.263-3.412,12.564c1.953-3.756,3.855-7.634,5.709-11.636S375.365,48.796,376.675,45.163z"/>
	<path fill="#37669D" d="M94.733,159.719c-0.094-0.389-0.233-0.783-0.422-1.184c-1-2.093-2.377-4.009-4.133-5.75
		c-1.757-1.743-3.734-3.354-5.929-4.832c-2.196-1.48-4.55-2.801-7.059-3.959c-2.511-1.16-5.019-2.203-7.524-3.128
		c-2.506-0.928-4.949-1.718-7.329-2.377c-2.381-0.658-4.537-1.202-6.466-1.633c-4.815-0.981-9.507-1.707-14.073-2.178
		c-4.567-0.471-8.864-0.844-12.891-1.12c3.427-0.828,7.015-2.074,10.766-3.739c3.751-1.664,7.467-3.619,11.148-5.863
		c3.683-2.244,7.236-4.768,10.666-7.569c3.428-2.802,6.509-5.762,9.241-8.881c2.732-3.118,5.037-6.375,6.916-9.77
		c1.878-3.395,3.129-6.819,3.755-10.276c0.326-2.012,0.382-3.922,0.169-5.729c-0.312-2.642-1.148-4.95-2.511-6.928
		c-1.361-1.976-3.058-3.597-5.086-4.862c-2.029-1.264-4.261-2.149-6.693-2.663c-2.434-0.511-4.901-0.618-7.404-0.322
		c-2.132,0.252-4.204,0.803-6.219,1.65c-2.015,0.85-3.826,2.027-5.433,3.532c-1.905,1.776-3.664,3.899-5.274,6.368
		c-1.611,2.47-3.082,5.041-4.411,7.711c-1.33,2.671-2.528,5.351-3.597,8.038s-1.99,5.135-2.763,7.34
		c-1.587,4.464-2.999,9.12-4.234,13.964c-1.237,4.847-2.391,9.704-3.458,14.577l-0.696,0.082c1.142-6.243,2.397-12.418,3.768-18.525
		c1.368-6.105,2.7-11.832,3.996-17.178c1.295-5.345,2.511-10.165,3.648-14.458c1.137-4.293,2.067-7.751,2.791-10.375
		c0.428-1.554,0.757-2.849,0.986-3.888c0.229-1.037,0.358-1.44,0.386-1.208c0.405-0.94,0.66-1.771,0.764-2.487
		c0.102-0.717,0.122-1.354,0.056-1.91c-0.131-1.112-0.558-1.931-1.276-2.458c-0.721-0.523-1.544-0.732-2.471-0.624
		c-0.928,0.109-1.85,0.561-2.767,1.35s-1.576,1.867-1.979,3.229c-1.315,4.384-2.603,9.294-3.863,14.73
		c-1.261,5.436-2.465,11.158-3.61,17.168c-1.146,6.01-2.217,12.163-3.211,18.459c-0.994,6.296-1.888,12.453-2.681,18.466
		c-1.417-0.066-2.819-0.195-4.204-0.384c-1.386-0.188-2.763-0.507-4.131-0.957c-1.107-0.62-2.194-0.868-3.26-0.742
		c-1.206,0.142-2.154,0.654-2.85,1.535c-0.694,0.881-0.979,1.854-0.854,2.92c0.104,0.881,0.61,1.679,1.517,2.394
		c0.906,0.717,2.189,1.141,3.852,1.272c1.139,0.101,2.284,0.153,3.437,0.157c1.151,0.005,2.318,0.032,3.499,0.08
		c0.382,0.05,0.758,0.052,1.129,0.008c0.37-0.044,0.746-0.041,1.128,0.007c-0.662,5.53-1.208,10.751-1.638,15.666
		c-0.43,4.914-0.726,9.471-0.886,13.673c-0.135,3.634-0.171,7.009-0.107,10.127c0.062,3.117,0.245,5.951,0.547,8.5
		c0.269,2.271,0.658,4.292,1.175,6.064c0.514,1.771,1.136,3.153,1.864,4.149c0.802,1.221,1.666,2.07,2.592,2.548
		c0.926,0.479,1.76,0.674,2.501,0.585c0.788-0.093,1.417-0.438,1.887-1.032c0.47-0.597,0.656-1.312,0.558-2.146
		c-0.109-0.927-0.521-1.817-1.232-2.673c-1.113-2.266-1.89-5.252-2.327-8.959c-0.269-2.271-0.394-4.817-0.374-7.639
		c0.019-2.822,0.195-5.804,0.528-8.944c0.483-3.863,1.086-8.305,1.809-13.324c0.722-5.02,1.635-10.414,2.739-16.184
		c4.3,0.197,8.517,0.485,12.649,0.867c4.134,0.382,8.341,1,12.625,1.855l-0.069,0.008c3.613,0.749,7.299,1.723,11.06,2.922
		c3.76,1.2,7.303,2.743,10.627,4.631c3.324,1.885,6.294,4.154,8.91,6.806c2.615,2.651,4.604,5.752,5.963,9.304
		c0.33,0.808,0.763,1.378,1.296,1.715c0.533,0.335,1.101,0.47,1.703,0.398c0.834-0.099,1.573-0.598,2.22-1.496
		c0.646-0.899,0.889-2.021,0.73-3.364C94.894,160.486,94.825,160.106,94.733,159.719z M21.26,147.573
		c-0.539,3.398-1.027,6.629-1.464,9.688c-0.348,3.425-0.561,6.692-0.639,9.803c-0.08,3.111-0.009,5.993,0.211,8.646l-1.12,0.062
		c-0.024-1.784,0.094-4.274,0.35-7.478c0.256-3.203,0.655-6.88,1.198-11.032c0.657-6.375,1.598-13.111,2.827-20.211
		c0.093-0.011,0.176-0.009,0.248,0.006c0.072,0.017,0.154,0.018,0.247,0.006C22.417,140.669,21.797,144.174,21.26,147.573z
		 M32.162,115.764c1.252-4.519,2.612-8.908,4.082-13.17c0.591-1.761,1.269-3.674,2.036-5.739c0.766-2.063,1.636-4.14,2.611-6.229
		c0.976-2.089,2.041-4.106,3.197-6.053c1.156-1.945,2.439-3.707,3.852-5.283c1.574-1.783,3.359-3.183,5.354-4.193
		s4.036-1.639,6.121-1.886c1.669-0.197,3.299-0.119,4.892,0.231c1.592,0.354,3.029,0.981,4.311,1.888
		c1.281,0.905,2.362,2.095,3.241,3.563c0.879,1.472,1.441,3.249,1.688,5.334c0.044,0.372,0.089,0.753,0.136,1.147
		c0.047,0.394,0.048,0.805,0.005,1.232c-0.039,3.247-0.682,6.46-1.928,9.639c-1.245,3.178-2.93,6.221-5.054,9.126
		c-2.123,2.906-4.618,5.656-7.482,8.25c-2.866,2.594-5.963,4.923-9.291,6.983c-3.327,2.062-6.794,3.847-10.397,5.353
		c-3.605,1.508-7.195,2.637-10.772,3.388C29.777,124.81,30.909,120.282,32.162,115.764z"/>
	<path fill="#37669D" d="M89.221,107.117c0.648-0.077,1.258-0.29,1.828-0.64c0.568-0.35,0.985-0.797,1.25-1.346
		c0.414-1.271,0.689-2.312,0.828-3.129c0.139-0.815,0.181-1.454,0.126-1.917c-0.087-0.741-0.337-1.266-0.749-1.568
		c-0.412-0.304-0.92-0.421-1.521-0.35c-0.464,0.055-0.97,0.245-1.519,0.566c-0.55,0.324-1.054,0.736-1.511,1.236
		c-0.458,0.501-0.861,1.065-1.209,1.694c-0.349,0.629-0.578,1.277-0.687,1.949c-0.218,1.342,0.023,2.287,0.724,2.84
		C87.481,107.005,88.293,107.227,89.221,107.117z"/>
	<path fill="#37669D" d="M220.524,99.248c-0.669-0.085-1.771,0.314-3.312,1.202c-1.997,0.987-4.089,2.175-6.274,3.562
		c-2.188,1.386-4.37,2.89-6.551,4.51c-2.183,1.621-4.316,3.354-6.399,5.197c-2.085,1.845-4.023,3.742-5.812,5.692
		c0.188-3.971,0.227-7.522,0.115-10.657c-0.113-3.135-0.278-5.629-0.497-7.484c-0.033-1.076-0.283-1.799-0.749-2.167
		c-0.467-0.368-1.002-0.517-1.604-0.444c-0.511,0.061-0.99,0.271-1.441,0.628c-0.451,0.359-0.725,0.731-0.819,1.119
		c-0.106,0.294-0.448,0.888-1.023,1.776c-0.577,0.892-1.291,1.903-2.144,3.038c-0.853,1.134-1.77,2.323-2.75,3.567
		c-0.981,1.244-1.908,2.34-2.783,3.289s-1.645,1.698-2.308,2.247c-0.664,0.549-1.078,0.716-1.245,0.5
		c-0.224-0.303-0.355-0.722-0.396-1.258c-0.04-0.534-0.025-1.111,0.042-1.731c0.068-0.618,0.163-1.206,0.286-1.761
		c0.121-0.555,0.236-0.979,0.343-1.273c0.462-1.652,1.137-3.295,2.025-4.927s1.914-3.092,3.077-4.381
		c1.163-1.288,2.412-2.354,3.746-3.191c1.334-0.838,2.705-1.272,4.112-1.297c1.029-0.027,2.021,0.208,2.973,0.706
		c0.951,0.499,1.817,1.266,2.598,2.301c0.464,0.745,1.021,1.277,1.67,1.6c0.648,0.323,1.252,0.451,1.808,0.387
		c0.695-0.083,1.191-0.446,1.492-1.094c0.299-0.646,0.209-1.409-0.271-2.294c-0.985-1.574-2.364-2.716-4.141-3.422
		c-1.775-0.707-3.56-1.095-5.354-1.165c-0.851-0.041-1.786,0-2.806,0.12c-2.641,0.312-5.151,1.139-7.531,2.477
		c-2.379,1.338-4.473,3.008-6.28,5.007c-1.514,1.675-2.77,3.527-3.799,5.54c-0.318,0.273-0.59,0.628-0.812,1.066l0.069-0.008
		c-0.673,1.066-1.527,2.284-2.564,3.651c-1.036,1.368-2.188,2.761-3.453,4.179c-1.267,1.419-2.604,2.822-4.014,4.21
		c-1.41,1.391-2.826,2.625-4.248,3.709c-1.424,1.084-2.8,1.964-4.13,2.638c-1.329,0.675-2.537,1.005-3.618,0.992
		c-1.151-0.192-2.015-0.644-2.592-1.351c-0.576-0.707-0.926-1.57-1.046-2.59c-0.109-0.927-0.111-1.925-0.002-2.996
		c0.108-1.07,0.259-2.182,0.452-3.331c0.152-1.098,0.286-2.148,0.403-3.149c0.116-1,0.123-1.939,0.019-2.82
		c-0.125-1.065-0.485-1.917-1.076-2.553l0.069-0.008c-0.815-0.937-1.826-1.335-3.031-1.191c-0.556,0.064-1.108,0.261-1.657,0.584
		c-0.551,0.322-1.102,0.729-1.654,1.217c-1.207,1.317-2.439,3.015-3.698,5.089c-1.259,2.076-2.451,4.213-3.576,6.414
		c-1.127,2.202-2.146,4.317-3.057,6.353c-0.911,2.035-1.625,3.646-2.142,4.835c-0.106,0.294-0.233,0.616-0.38,0.961
		c-0.147,0.347-0.279,0.621-0.396,0.822c-0.035,0.1-0.075,0.162-0.118,0.19c-0.044,0.028-0.062,0.065-0.058,0.111
		c0.152-0.3,0.218-0.543,0.196-0.729c-0.075-1.024,0.001-2.278,0.225-3.762c0.224-1.483,0.519-3.068,0.884-4.758
		c0.364-1.688,0.782-3.417,1.254-5.188c0.472-1.771,0.941-3.459,1.41-5.065c0.504-1.704,0.962-3.286,1.378-4.745
		c0.415-1.459,0.691-2.595,0.831-3.41c0.197-1.104-0.082-1.976-0.838-2.615c-0.758-0.638-1.669-0.896-2.734-0.771
		c-0.65,0.077-1.313,0.321-1.993,0.729c-0.681,0.41-1.281,0.997-1.801,1.764c-0.802,1.176-1.515,2.787-2.142,4.835
		c-0.379,1.237-0.707,2.541-0.995,3.896c-1.016,1.546-2.384,3.183-4.131,4.921c-1.851,1.84-3.848,3.521-5.994,5.043
		c-2.146,1.521-4.303,2.764-6.468,3.725c-2.166,0.961-4.081,1.354-5.747,1.173c-1.14-0.1-2.114-0.596-2.924-1.486
		c-0.811-0.892-1.325-2.264-1.545-4.118c-0.114-0.973-0.124-2.146-0.028-3.521c0.096-1.374,0.306-2.878,0.63-4.515
		c0.244-1.109,0.013-1.975-0.694-2.596c-0.708-0.622-1.618-0.866-2.73-0.734c-0.649,0.077-1.327,0.311-2.032,0.697
		c-0.706,0.39-1.345,0.947-1.916,1.672l-0.054,0.146c-0.466,1.23-0.767,2.465-0.902,3.702c-0.136,1.238-0.132,2.459,0.01,3.664
		c0.176,1.484,0.553,2.885,1.131,4.201c0.58,1.318,1.337,2.462,2.274,3.432c0.937,0.972,2.049,1.744,3.34,2.319
		c1.29,0.577,2.733,0.864,4.331,0.863c0.376,0.002,0.74-0.005,1.09-0.023c0.351-0.017,0.71-0.048,1.082-0.092
		c2.409-0.285,4.829-0.981,7.259-2.091c2.43-1.109,4.727-2.45,6.892-4.022c2.163-1.57,4.156-3.298,5.978-5.182
		c0.034-0.035,0.064-0.07,0.098-0.105c-0.091,0.943-0.179,1.887-0.233,2.836c-0.138,2.412-0.095,4.568,0.13,6.469
		c0.044,0.371,0.087,0.729,0.128,1.077c0.041,0.348,0.104,0.682,0.188,1c0.123,0.644,0.312,1.35,0.566,2.117
		c0.257,0.769,0.586,1.47,0.99,2.104c0.403,0.632,0.91,1.149,1.521,1.547c0.61,0.397,1.356,0.545,2.237,0.44
		c0.74-0.087,1.386-0.399,1.934-0.934c0.547-0.535,1.078-1.209,1.594-2.021c0.252-0.642,0.667-1.606,1.243-2.896
		c0.576-1.29,1.205-2.727,1.888-4.311c0.682-1.584,1.395-3.208,2.139-4.87c0.742-1.662,1.421-3.175,2.035-4.541
		c0.614-1.365,1.129-2.471,1.547-3.32c0.416-0.848,0.653-1.228,0.711-1.141c0.051,0.041,0.056,0.169,0.01,0.387
		c-0.044,0.217-0.1,0.446-0.165,0.688c-0.43,1.932-0.526,3.893-0.291,5.885c0.148,1.251,0.485,2.422,1.014,3.51
		c0.527,1.09,1.205,2.055,2.034,2.896c0.827,0.842,1.802,1.525,2.921,2.051c1.119,0.526,2.342,0.828,3.667,0.906
		c2.524-0.11,5.062-0.904,7.612-2.38c2.551-1.476,4.993-3.28,7.326-5.412c2.332-2.133,4.493-4.419,6.484-6.863
		c0.023-0.029,0.044-0.055,0.067-0.084c0.086,1.299,0.353,2.551,0.823,3.75c0.539,1.37,1.445,2.285,2.722,2.744
		c0.49,0.177,0.973,0.285,1.447,0.321c0.474,0.039,0.943,0.03,1.407-0.024c1.39-0.164,2.733-0.722,4.031-1.675
		c1.297-0.952,2.536-2.098,3.718-3.436c1.181-1.338,2.281-2.76,3.302-4.268c1.021-1.505,1.945-2.919,2.776-4.24l1.729-2.671
		c-0.106,1.094-0.232,2.507-0.38,4.239s-0.325,3.622-0.529,5.666c-0.205,2.046-0.451,4.142-0.736,6.29
		c-0.287,2.148-0.599,4.182-0.936,6.103l0.123-0.156c-1.147,1.828-2.435,3.964-3.859,6.412c-1.427,2.447-2.89,5.075-4.39,7.885
		c-1.501,2.809-2.979,5.721-4.431,8.735c-1.452,3.014-2.759,5.977-3.92,8.886c-1.159,2.91-2.112,5.678-2.859,8.305
		c-0.747,2.625-1.188,4.956-1.323,6.993c-0.03,0.942,0.002,1.808,0.095,2.597c0.23,1.946,0.813,3.298,1.748,4.058
		c0.936,0.759,2.076,1.059,3.42,0.899c1.067-0.126,2.125-0.51,3.177-1.151c1.052-0.641,2.01-1.482,2.874-2.523
		c2.469-2.971,4.593-6.56,6.376-10.764c1.781-4.205,3.298-8.672,4.548-13.4c1.25-4.729,2.254-9.561,3.011-14.489
		c0.757-4.93,1.317-9.625,1.684-14.085c1.792-2.326,3.832-4.647,6.12-6.961c2.287-2.314,4.674-4.488,7.159-6.521
		c2.484-2.031,4.986-3.832,7.504-5.397c2.516-1.565,4.899-2.765,7.151-3.594c0.586-0.211,1.077-0.633,1.473-1.268
		c0.394-0.633,0.551-1.204,0.467-1.711C221.567,99.63,221.191,99.334,220.524,99.248z M179.521,152.799
		c-1.281,4.075-2.714,7.758-4.299,11.046c-1.356,2.839-2.481,4.945-3.376,6.32c-0.896,1.374-1.373,1.806-1.433,1.297
		c-0.066-0.557,0.058-1.5,0.37-2.829c0.312-1.33,0.88-3.1,1.698-5.311c1.31-3.634,2.891-7.45,4.744-11.451
		c1.854-4.002,3.756-7.88,5.709-11.636C181.938,144.537,180.801,148.724,179.521,152.799z"/>
	<path fill="#37669D" d="M335.603,131.252c-0.094-0.39-0.23-0.784-0.42-1.185c-1-2.092-2.379-4.008-4.135-5.75
		c-1.758-1.742-3.73-3.354-5.928-4.832s-4.549-2.8-7.059-3.959c-2.51-1.158-5.018-2.202-7.523-3.128
		c-2.508-0.927-4.951-1.717-7.33-2.376c-2.381-0.658-4.537-1.202-6.467-1.632c-4.814-0.98-9.505-1.707-14.072-2.178
		c-4.565-0.47-8.863-0.844-12.891-1.12c3.427-0.828,7.016-2.074,10.766-3.739c3.751-1.665,7.467-3.619,11.148-5.863
		c3.684-2.244,7.236-4.768,10.668-7.569c3.428-2.802,6.508-5.762,9.238-8.881c2.734-3.119,5.039-6.375,6.918-9.77
		c1.877-3.395,3.127-6.819,3.754-10.276c0.326-2.014,0.385-3.922,0.17-5.729c-0.312-2.642-1.148-4.951-2.512-6.928
		c-1.359-1.978-3.059-3.597-5.086-4.862c-2.027-1.264-4.26-2.149-6.691-2.663c-2.436-0.511-4.902-0.619-7.404-0.322
		c-2.133,0.252-4.207,0.803-6.221,1.65s-3.824,2.027-5.434,3.532c-1.904,1.776-3.662,3.898-5.272,6.368
		c-1.612,2.47-3.083,5.041-4.411,7.71c-1.329,2.672-2.528,5.351-3.597,8.038c-1.068,2.688-1.99,5.135-2.764,7.34
		c-1.586,4.464-2.999,9.119-4.234,13.964c-1.236,4.846-2.39,9.704-3.458,14.576l-0.695,0.082c1.141-6.243,2.397-12.418,3.767-18.524
		c1.37-6.105,2.701-11.833,3.996-17.179c1.295-5.345,2.512-10.165,3.648-14.457c1.138-4.293,2.067-7.752,2.793-10.375
		c0.426-1.554,0.755-2.849,0.984-3.887c0.229-1.037,0.359-1.44,0.387-1.209c0.405-0.94,0.659-1.771,0.764-2.486
		c0.101-0.717,0.122-1.354,0.056-1.91c-0.131-1.113-0.558-1.931-1.277-2.458c-0.722-0.523-1.544-0.732-2.47-0.624
		c-0.929,0.11-1.85,0.561-2.767,1.351c-0.918,0.79-1.577,1.866-1.979,3.229c-1.314,4.385-2.602,9.294-3.863,14.73
		c-1.26,5.436-2.464,11.157-3.609,17.167c-1.146,6.01-2.217,12.162-3.212,18.459c-0.994,6.297-1.888,12.452-2.68,18.467
		c-1.418-0.067-2.819-0.195-4.205-0.384c-1.386-0.189-2.763-0.508-4.13-0.957c-1.108-0.62-2.194-0.869-3.261-0.743
		c-1.205,0.143-2.154,0.653-2.849,1.535c-0.694,0.882-0.979,1.854-0.854,2.92c0.104,0.881,0.61,1.679,1.517,2.394
		c0.906,0.716,2.189,1.141,3.851,1.272c1.14,0.101,2.285,0.151,3.437,0.156c1.152,0.006,2.318,0.032,3.499,0.08
		c0.382,0.051,0.758,0.053,1.129,0.009c0.37-0.044,0.746-0.041,1.129,0.007c-0.662,5.529-1.209,10.751-1.638,15.666
		c-0.431,4.914-0.726,9.472-0.887,13.674c-0.134,3.633-0.17,7.009-0.107,10.127c0.062,3.117,0.245,5.95,0.547,8.499
		c0.269,2.271,0.659,4.292,1.175,6.063c0.515,1.772,1.137,3.154,1.865,4.15c0.802,1.22,1.665,2.069,2.592,2.548
		c0.925,0.478,1.76,0.673,2.501,0.585c0.788-0.093,1.417-0.438,1.887-1.033c0.469-0.597,0.656-1.312,0.558-2.146
		c-0.11-0.927-0.521-1.818-1.232-2.673c-1.114-2.266-1.89-5.251-2.328-8.959c-0.269-2.271-0.393-4.817-0.374-7.64
		c0.02-2.821,0.195-5.803,0.529-8.943c0.483-3.863,1.085-8.305,1.809-13.324c0.722-5.019,1.635-10.414,2.739-16.184
		c4.3,0.196,8.516,0.485,12.649,0.866c4.132,0.383,8.341,1,12.625,1.856l-0.068,0.008c3.611,0.748,7.297,1.721,11.061,2.922
		c3.758,1.2,7.301,2.743,10.625,4.63c3.322,1.887,6.295,4.155,8.912,6.807c2.611,2.65,4.602,5.752,5.963,9.304
		c0.33,0.807,0.762,1.378,1.295,1.715c0.533,0.336,1.1,0.469,1.703,0.398c0.834-0.1,1.572-0.599,2.221-1.496
		c0.645-0.898,0.889-2.021,0.729-3.363C335.765,132.02,335.695,131.64,335.603,131.252z M262.131,119.106
		c-0.539,3.4-1.026,6.629-1.464,9.688c-0.347,3.424-0.56,6.691-0.639,9.803c-0.079,3.111-0.009,5.993,0.211,8.646l-1.12,0.062
		c-0.023-1.784,0.094-4.275,0.351-7.478c0.256-3.202,0.655-6.879,1.197-11.032c0.657-6.375,1.599-13.111,2.828-20.211
		c0.093-0.011,0.176-0.009,0.247,0.006c0.072,0.016,0.154,0.017,0.247,0.006C263.289,112.203,262.669,115.707,262.131,119.106z
		 M273.033,87.297c1.252-4.52,2.613-8.908,4.083-13.17c0.59-1.762,1.269-3.674,2.036-5.739c0.766-2.063,1.636-4.14,2.611-6.229
		c0.977-2.09,2.04-4.106,3.197-6.054c1.154-1.944,2.438-3.707,3.852-5.283c1.574-1.783,3.359-3.182,5.354-4.192
		s4.035-1.64,6.121-1.886c1.67-0.197,3.299-0.119,4.891,0.231c1.592,0.353,3.031,0.98,4.312,1.887
		c1.279,0.906,2.359,2.095,3.238,3.564c0.881,1.471,1.441,3.248,1.689,5.333c0.043,0.372,0.088,0.753,0.135,1.147
		c0.047,0.394,0.049,0.805,0.006,1.232c-0.039,3.247-0.682,6.459-1.928,9.638c-1.246,3.18-2.93,6.222-5.055,9.126
		c-2.123,2.907-4.617,5.657-7.482,8.25c-2.865,2.595-5.963,4.924-9.291,6.983c-3.326,2.062-6.795,3.846-10.397,5.353
		c-3.604,1.508-7.195,2.637-10.771,3.388C270.648,96.343,271.781,91.815,273.033,87.297z"/>
	<path fill="#37669D" d="M410.382,69.161c0.646-0.076,1.256-0.29,1.828-0.64c0.566-0.349,0.984-0.797,1.25-1.346
		c0.414-1.271,0.689-2.312,0.828-3.129c0.139-0.815,0.18-1.454,0.125-1.917c-0.088-0.741-0.338-1.265-0.748-1.568
		c-0.414-0.304-0.92-0.42-1.521-0.349c-0.465,0.055-0.971,0.245-1.52,0.567c-0.551,0.322-1.053,0.734-1.512,1.235
		c-0.457,0.501-0.859,1.065-1.209,1.693c-0.348,0.629-0.578,1.279-0.686,1.949c-0.219,1.342,0.023,2.287,0.725,2.84
		C408.64,69.05,409.455,69.271,410.382,69.161z"/>
	<path fill="#37669D" d="M491.47,66.416c-0.465,0.055-0.938,0.229-1.42,0.521c-0.48,0.292-0.877,0.738-1.182,1.338l0.07-0.008
		c-0.674,1.066-1.527,2.284-2.564,3.651c-1.035,1.368-2.188,2.761-3.453,4.179c-1.268,1.419-2.604,2.822-4.014,4.21
		c-1.41,1.389-2.826,2.625-4.248,3.709c-1.424,1.084-2.801,1.964-4.129,2.638c-1.33,0.676-2.539,1.005-3.619,0.992
		c-1.15-0.192-2.016-0.643-2.592-1.35s-0.926-1.57-1.047-2.591c-0.109-0.927-0.109-1.926-0.002-2.996
		c0.109-1.07,0.26-2.181,0.453-3.331c0.152-1.099,0.285-2.148,0.402-3.149c0.117-1,0.123-1.939,0.02-2.82
		c-0.125-1.065-0.484-1.917-1.076-2.553l0.07-0.008c-0.816-0.936-1.826-1.334-3.031-1.191c-0.557,0.065-1.111,0.261-1.658,0.584
		c-0.551,0.323-1.102,0.729-1.654,1.217c-1.207,1.317-2.438,3.015-3.699,5.089c-1.258,2.076-2.447,4.214-3.574,6.415
		c-1.129,2.201-2.146,4.317-3.059,6.352c-0.91,2.035-1.623,3.646-2.141,4.835c-0.105,0.294-0.234,0.616-0.379,0.961
		c-0.148,0.347-0.279,0.621-0.398,0.822c-0.035,0.099-0.074,0.162-0.117,0.19c-0.045,0.028-0.061,0.066-0.057,0.111
		c0.15-0.3,0.217-0.542,0.195-0.728c-0.074-1.024,0-2.279,0.225-3.762c0.223-1.482,0.521-3.068,0.883-4.757
		c0.363-1.688,0.783-3.417,1.256-5.188c0.473-1.771,0.941-3.459,1.408-5.065c0.504-1.704,0.963-3.285,1.379-4.745
		c0.414-1.457,0.691-2.595,0.83-3.41c0.197-1.104-0.08-1.976-0.838-2.615c-0.758-0.639-1.668-0.896-2.734-0.771
		c-0.646,0.077-1.311,0.32-1.99,0.729c-0.684,0.41-1.281,0.997-1.803,1.763c-0.801,1.176-1.516,2.788-2.143,4.835
		c-0.379,1.236-0.705,2.54-0.994,3.895c-1.016,1.547-2.383,3.185-4.131,4.923c-1.852,1.84-3.848,3.521-5.994,5.043
		c-2.145,1.521-4.303,2.765-6.469,3.725c-2.166,0.961-4.08,1.354-5.746,1.173c-1.141-0.1-2.115-0.596-2.924-1.486
		c-0.811-0.892-1.326-2.264-1.545-4.117c-0.115-0.973-0.125-2.146-0.029-3.521c0.096-1.374,0.305-2.878,0.631-4.515
		c0.244-1.109,0.012-1.975-0.695-2.597c-0.709-0.621-1.615-0.866-2.729-0.734c-0.648,0.077-1.326,0.311-2.031,0.698
		c-0.707,0.39-1.346,0.947-1.918,1.672l-0.053,0.147c-0.426,1.126-0.707,2.256-0.857,3.389c-2.77,0.964-5.471,2.024-8.09,3.202
		c-2.768,1.243-5.426,2.604-7.977,4.079c-0.83-3.05-2.271-5.276-4.312-6.68c-2.047-1.402-4.367-1.951-6.963-1.645
		c-1.762,0.208-3.334,0.711-4.719,1.509c-1.387,0.799-2.611,1.777-3.672,2.937c-1.062,1.159-1.994,2.433-2.791,3.818
		c-0.799,1.388-1.494,2.774-2.082,4.158c-0.4,0.988-0.779,1.96-1.135,2.919c-0.357,0.958-0.715,1.929-1.066,2.91
		c-0.07,0.197-0.131,0.38-0.182,0.55c-0.051,0.171-0.111,0.354-0.184,0.55c0.059-0.711,0.129-1.495,0.217-2.352
		c0.086-0.856,0.211-1.88,0.375-3.075c0.164-1.194,0.389-2.606,0.664-4.237c0.275-1.63,0.613-3.55,1.012-5.759l-0.121,0.156
		c1.104-1.775,2.381-3.9,3.828-6.374c1.443-2.473,2.92-5.114,4.42-7.923c1.5-2.81,2.979-5.721,4.43-8.736
		c1.453-3.014,2.76-5.976,3.92-8.886s2.113-5.677,2.859-8.303c0.748-2.625,1.188-4.957,1.322-6.994
		c0.035-0.896,0.006-1.763-0.096-2.597c-0.229-1.945-0.811-3.299-1.748-4.059c-0.936-0.758-2.076-1.059-3.418-0.9
		c-1.066,0.126-2.127,0.512-3.178,1.151c-1.053,0.642-2.01,1.483-2.875,2.525c-2.672,3.229-4.934,7.149-6.785,11.763
		c-1.85,4.613-3.387,9.505-4.609,14.677c-1.221,5.173-2.148,10.429-2.789,15.768c-0.473,3.946-0.83,7.73-1.084,11.356
		c-1.793,0.682-3.764,1.274-5.928,1.772c-2.311,0.531-4.646,0.937-7.012,1.216c-0.973,0.115-1.951,0.195-2.932,0.24
		c-0.982,0.046-1.941,0.077-2.879,0.094c-0.494-1.397-1.109-2.324-1.844-2.777c-0.736-0.453-1.475-0.637-2.215-0.549
		c-0.789,0.093-1.461,0.467-2.018,1.12c-0.559,0.654-0.789,1.375-0.697,2.162c0.084,0.694,0.416,1.337,1.004,1.925
		c0.586,0.59,1.65,1.051,3.195,1.385c-0.021,0.614-0.107,1.376-0.26,2.286c-0.15,0.912-0.367,1.866-0.648,2.861
		c-0.281,0.998-0.625,1.966-1.029,2.906c-0.408,0.94-0.855,1.722-1.346,2.344c-0.654,0.83-1.166,1.266-1.537,1.31
		c-0.602,0.071-1.027-0.536-1.271-1.823c-0.146-0.828-0.232-1.862-0.262-3.104c-0.029-1.241,0.029-2.529,0.178-3.863
		c0.148-1.333,0.377-2.676,0.686-4.027c0.311-1.353,0.73-2.576,1.26-3.674c0.527-1.095,1.16-2.005,1.898-2.726
		c0.734-0.722,1.613-1.143,2.635-1.263c0.695-0.082,1.529,0.03,2.506,0.338l-0.07,0.008c0.652,0.346,1.332,0.431,2.039,0.252
		c0.707-0.177,1.283-0.479,1.729-0.909c0.439-0.428,0.68-0.901,0.713-1.423c0.031-0.521-0.279-0.954-0.93-1.3
		c-1.631-0.277-3.209-0.326-4.738-0.146c-1.764,0.208-3.422,0.688-4.977,1.435c-1.561,0.748-2.998,1.682-4.322,2.801
		c-1.324,1.121-2.48,2.396-3.459,3.828c-0.982,1.432-1.754,2.956-2.314,4.573c-0.455,1.321-0.789,2.761-1.006,4.312
		c-0.215,1.553-0.24,3.048-0.07,4.484c0.105,0.881,0.285,1.717,0.543,2.509c0.26,0.792,0.617,1.537,1.076,2.234
		c0.699,1.141,1.613,1.914,2.74,2.319c1.129,0.407,2.297,0.539,3.502,0.396c1.203-0.143,2.359-0.501,3.467-1.079
		c1.105-0.577,2.01-1.283,2.711-2.118l-0.07,0.008c0.787-0.892,1.453-1.91,2-3.056c0.545-1.146,0.98-2.336,1.305-3.572
		c0.322-1.236,0.557-2.451,0.697-3.642c0.141-1.191,0.176-2.299,0.1-3.325c1.078-0.032,2.152-0.078,3.229-0.135
		c1.072-0.057,2.215-0.156,3.42-0.298c2.502-0.297,4.941-0.714,7.322-1.252c1.287-0.292,2.496-0.616,3.643-0.968
		c-0.227,4.623-0.307,8.787-0.238,12.478c0.072,3.774,0.248,6.655,0.529,8.643c0.131,1.112,0.422,1.876,0.871,2.294
		c0.447,0.417,0.92,0.631,1.414,0.645c0.494,0.012,0.938-0.123,1.324-0.404c0.393-0.281,0.586-0.609,0.592-0.985
		c0.148-1.1,0.352-2.181,0.604-3.242c0.535-2.227,1.135-4.61,1.797-7.156s1.365-4.85,2.107-6.911c0.354-0.981,0.83-2.13,1.426-3.446
		c0.596-1.314,1.285-2.548,2.066-3.698c0.779-1.149,1.654-2.087,2.627-2.812c0.973-0.725,2.031-0.992,3.184-0.799
		c1.342,0.218,2.465,1.083,3.373,2.597c0.906,1.514,1.395,3.371,1.469,5.571c-2.203,1.624-4.402,3.599-6.596,5.925
		c-2.191,2.328-4.156,4.78-5.896,7.358c-1.74,2.577-3.105,5.136-4.098,7.674c-0.992,2.537-1.365,4.849-1.119,6.935
		c0.203,1.714,0.918,3.205,2.15,4.468c1.379,1.342,3.182,1.881,5.406,1.617c1.621-0.19,3.365-0.926,5.236-2.205
		c1.869-1.277,3.65-3.099,5.348-5.46c1.691-2.361,3.23-5.246,4.615-8.65c1.385-3.406,2.398-7.333,3.049-11.779
		c0.229-1.249,0.355-2.449,0.385-3.605c0.027-1.153,0.002-2.267-0.076-3.339c2.893-1.752,5.818-3.342,8.775-4.772
		c2.273-1.103,4.506-2.068,6.688-2.908c0.012,0.117,0.008,0.236,0.021,0.353c0.176,1.484,0.553,2.886,1.133,4.202
		c0.578,1.318,1.334,2.462,2.27,3.433c0.939,0.971,2.051,1.744,3.342,2.318c1.289,0.577,2.732,0.864,4.33,0.863
		c0.377,0.003,0.74-0.005,1.092-0.023c0.352-0.017,0.711-0.048,1.08-0.092c2.41-0.285,4.83-0.981,7.262-2.092
		c2.43-1.108,4.727-2.449,6.891-4.021s4.156-3.3,5.979-5.183c0.033-0.035,0.064-0.069,0.098-0.104
		c-0.092,0.941-0.18,1.886-0.234,2.834c-0.137,2.413-0.094,4.568,0.131,6.469c0.047,0.371,0.088,0.729,0.129,1.077
		c0.041,0.348,0.104,0.682,0.188,1c0.123,0.644,0.312,1.349,0.566,2.118c0.256,0.768,0.586,1.47,0.99,2.104
		c0.402,0.632,0.91,1.149,1.521,1.547c0.609,0.397,1.354,0.544,2.236,0.44c0.74-0.087,1.387-0.399,1.936-0.935
		c0.545-0.534,1.078-1.209,1.592-2.021c0.252-0.643,0.668-1.607,1.244-2.896s1.205-2.726,1.887-4.311
		c0.684-1.584,1.395-3.207,2.139-4.87c0.742-1.662,1.422-3.175,2.037-4.541c0.613-1.365,1.129-2.47,1.545-3.32
		c0.416-0.848,0.652-1.228,0.713-1.141c0.051,0.041,0.055,0.169,0.01,0.387c-0.045,0.219-0.102,0.446-0.166,0.689
		c-0.43,1.931-0.527,3.893-0.291,5.885c0.146,1.251,0.486,2.422,1.014,3.51c0.527,1.09,1.205,2.056,2.035,2.896
		c0.826,0.843,1.803,1.525,2.92,2.051c1.119,0.527,2.344,0.829,3.668,0.906c2.523-0.109,5.062-0.904,7.611-2.38
		c2.551-1.476,4.994-3.279,7.326-5.412c2.332-2.132,4.492-4.419,6.484-6.864c1.99-2.443,3.666-4.663,5.027-6.656
		c0.842-1.227,1.107-2.163,0.797-2.808C492.736,66.607,492.21,66.328,491.47,66.416z M369.634,55.686
		c1.281-4.075,2.713-7.757,4.299-11.046c1.355-2.839,2.48-4.946,3.377-6.32c0.895-1.375,1.371-1.807,1.434-1.297
		c0.064,0.557-0.061,1.5-0.371,2.829c-0.312,1.329-0.879,3.1-1.697,5.312c-1.311,3.633-2.891,7.449-4.744,11.451
		s-3.756,7.88-5.709,11.636C367.214,63.948,368.353,59.761,369.634,55.686z M380.238,96.198c-0.025,0.19-0.053,0.357-0.082,0.502
		c-0.031,0.145-0.039,0.264-0.029,0.355l-0.008-0.069l-0.07,0.009c-0.795,3.995-1.689,7.364-2.68,10.113
		c-0.992,2.749-1.977,4.957-2.953,6.623c-0.979,1.667-1.891,2.796-2.736,3.391c-0.848,0.594-1.572,0.714-2.178,0.362
		c-0.555-0.312-0.885-0.929-0.994-1.855c-0.137-1.159,0.131-2.565,0.807-4.218c0.674-1.655,1.586-3.372,2.736-5.152
		c1.152-1.782,2.447-3.555,3.883-5.322S378.804,97.588,380.238,96.198l0.072-0.573l0.119-0.789l0.951,0.31L380.238,96.198z"/>
</g>
</svg>
