<svg xmlns="http://www.w3.org/2000/svg" viewBox="0 0 563.69 200.985">
  <g fill="#37669D">
    <path d="M94.733 159.719c-.094-.389-.233-.783-.422-1.184-1-2.092-2.377-4.008-4.133-5.75-1.757-1.743-3.734-3.354-5.929-4.832-2.196-1.48-4.55-2.8-7.059-3.959-2.511-1.16-5.019-2.203-7.524-3.128-2.506-.927-4.949-1.717-7.329-2.377-2.381-.658-4.537-1.202-6.466-1.632-4.815-.982-9.507-1.707-14.073-2.178-4.567-.471-8.864-.844-12.891-1.12 3.427-.828 7.015-2.074 10.766-3.739 3.751-1.665 7.467-3.62 11.148-5.864 3.683-2.244 7.236-4.767 10.666-7.569 3.428-2.802 6.509-5.762 9.241-8.881 2.732-3.118 5.037-6.375 6.916-9.769 1.878-3.395 3.129-6.82 3.755-10.277.326-2.012.382-3.922.169-5.729-.312-2.642-1.148-4.951-2.511-6.928-1.361-1.976-3.058-3.597-5.086-4.862-2.029-1.264-4.261-2.15-6.693-2.663-2.434-.511-4.901-.619-7.404-.323-2.132.252-4.204.803-6.219 1.651-2.015.849-3.826 2.027-5.433 3.532-1.905 1.776-3.664 3.899-5.274 6.368-1.611 2.47-3.082 5.041-4.411 7.711-1.33 2.671-2.528 5.351-3.597 8.038-1.069 2.688-1.99 5.135-2.763 7.34-1.587 4.464-2.999 9.12-4.234 13.964-1.237 4.846-2.391 9.704-3.458 14.577l-.696.082c1.142-6.243 2.397-12.418 3.768-18.525 1.368-6.106 2.7-11.832 3.996-17.178 1.295-5.345 2.511-10.165 3.648-14.458 1.137-4.293 2.067-7.751 2.791-10.375.428-1.554.757-2.849.986-3.888.229-1.037.358-1.44.386-1.208.405-.94.66-1.77.764-2.487.102-.717.122-1.354.056-1.91-.131-1.113-.558-1.931-1.276-2.458-.721-.524-1.544-.733-2.471-.624-.928.109-1.85.56-2.767 1.349s-1.576 1.867-1.979 3.229c-1.315 4.384-2.603 9.294-3.863 14.73-1.261 5.436-2.465 11.158-3.61 17.168-1.146 6.01-2.217 12.163-3.211 18.459s-1.888 12.453-2.681 18.466c-1.417-.066-2.819-.195-4.204-.384-1.386-.188-2.763-.507-4.131-.957-1.107-.62-2.194-.868-3.26-.742-1.206.142-2.154.654-2.85 1.535-.694.881-.979 1.855-.854 2.92.104.881.61 1.679 1.517 2.394.906.716 2.189 1.14 3.852 1.272 1.139.101 2.284.153 3.437.157 1.151.005 2.318.033 3.499.08.382.05.758.052 1.129.008.37-.044.746-.041 1.128.007-.662 5.53-1.208 10.751-1.638 15.666-.43 4.914-.726 9.471-.886 13.673-.135 3.634-.171 7.009-.107 10.127.062 3.117.245 5.951.547 8.5.269 2.271.658 4.292 1.175 6.064.514 1.772 1.136 3.154 1.864 4.15.802 1.22 1.666 2.07 2.592 2.548.926.478 1.76.673 2.501.585.788-.093 1.417-.438 1.887-1.033.47-.596.656-1.311.558-2.146-.109-.927-.521-1.818-1.232-2.673-1.113-2.266-1.89-5.252-2.327-8.959-.269-2.271-.394-4.817-.374-7.639.019-2.822.195-5.803.528-8.944.483-3.863 1.086-8.305 1.809-13.324.722-5.02 1.635-10.414 2.739-16.184 4.3.197 8.517.486 12.649.867 4.134.382 8.341 1 12.625 1.856l-.069.008c3.613.749 7.299 1.722 11.06 2.922 3.76 1.2 7.303 2.743 10.627 4.63 3.324 1.885 6.294 4.155 8.91 6.806 2.615 2.651 4.604 5.752 5.963 9.304.33.807.763 1.378 1.296 1.715.533.335 1.101.469 1.703.398.834-.099 1.573-.598 2.22-1.496.646-.899.889-2.021.73-3.364-.045-.369-.114-.749-.206-1.136zM21.26 147.573c-.539 3.399-1.027 6.629-1.464 9.688-.348 3.425-.561 6.692-.639 9.803-.08 3.111-.009 5.993.211 8.645l-1.12.062c-.024-1.784.094-4.275.35-7.478.256-3.203.655-6.88 1.198-11.032.657-6.375 1.598-13.111 2.827-20.211.093-.011.176-.009.248.006.072.016.154.017.247.006-.701 3.607-1.321 7.112-1.858 10.511zm10.902-31.809c1.252-4.519 2.612-8.908 4.082-13.17.591-1.761 1.269-3.674 2.036-5.739.766-2.064 1.636-4.14 2.611-6.229.976-2.089 2.041-4.106 3.197-6.053 1.156-1.945 2.439-3.707 3.852-5.283 1.574-1.783 3.359-3.182 5.354-4.193 1.995-1.011 4.036-1.639 6.121-1.886 1.669-.197 3.299-.119 4.892.232 1.592.353 3.029.981 4.311 1.887 1.281.906 2.362 2.095 3.241 3.564.879 1.471 1.441 3.249 1.688 5.334.044.372.089.753.136 1.147.047.394.048.805.005 1.233-.039 3.247-.682 6.46-1.928 9.638-1.245 3.178-2.93 6.221-5.054 9.126-2.123 2.907-4.618 5.657-7.482 8.25-2.866 2.594-5.963 4.923-9.291 6.984-3.327 2.062-6.794 3.846-10.397 5.352-3.605 1.508-7.195 2.637-10.772 3.388 1.013-4.536 2.145-9.064 3.398-13.582zM89.221 107.117c.648-.077 1.258-.29 1.828-.639.568-.35.985-.797 1.25-1.346.414-1.27.689-2.312.828-3.129.139-.815.181-1.454.126-1.917-.087-.741-.337-1.265-.749-1.568-.412-.304-.92-.421-1.521-.35-.464.055-.97.245-1.519.567-.55.324-1.054.736-1.511 1.236-.458.501-.861 1.065-1.209 1.694-.349.629-.578 1.278-.687 1.949-.218 1.342.023 2.288.724 2.84.7.551 1.512.773 2.44.663z"/>
    <path d="M220.524 99.248c-.669-.085-1.771.315-3.312 1.202-1.997.988-4.089 2.175-6.274 3.562-2.188 1.386-4.37 2.89-6.551 4.51-2.183 1.621-4.316 3.353-6.399 5.197-2.085 1.845-4.023 3.742-5.812 5.692.188-3.97.227-7.522.115-10.657-.113-3.135-.278-5.629-.497-7.484-.033-1.076-.283-1.799-.749-2.167-.467-.368-1.002-.517-1.604-.445-.511.061-.99.271-1.441.628-.451.36-.725.732-.819 1.119-.106.294-.448.888-1.023 1.777-.577.891-1.291 1.903-2.144 3.038-.853 1.134-1.77 2.323-2.75 3.567-.981 1.244-1.908 2.34-2.783 3.289-.875.95-1.645 1.699-2.308 2.247-.664.549-1.078.716-1.245.5-.224-.302-.355-.721-.396-1.257-.04-.535-.025-1.112.042-1.732.068-.618.163-1.206.286-1.761.121-.554.236-.979.343-1.273.462-1.652 1.137-3.295 2.025-4.927.888-1.632 1.914-3.092 3.077-4.381 1.163-1.288 2.412-2.353 3.746-3.191 1.334-.838 2.705-1.272 4.112-1.297 1.029-.027 2.021.208 2.973.706.951.499 1.817 1.266 2.598 2.301.464.745 1.021 1.277 1.67 1.6.648.323 1.252.451 1.808.386.695-.083 1.191-.446 1.492-1.093.299-.646.209-1.41-.271-2.294-.985-1.575-2.364-2.716-4.141-3.422-1.775-.707-3.56-1.095-5.354-1.165-.851-.041-1.786 0-2.806.12-2.641.312-5.151 1.138-7.531 2.476-2.379 1.338-4.473 3.008-6.28 5.007-1.514 1.675-2.77 3.528-3.799 5.54-.318.274-.59.628-.812 1.067l.069-.008c-.673 1.066-1.527 2.284-2.564 3.651-1.036 1.368-2.188 2.761-3.453 4.179-1.267 1.419-2.604 2.822-4.014 4.21-1.41 1.39-2.826 2.625-4.248 3.709-1.424 1.084-2.8 1.964-4.13 2.638-1.329.674-2.537 1.004-3.618.992-1.151-.193-2.015-.644-2.592-1.351-.576-.707-.926-1.57-1.046-2.59-.109-.926-.111-1.925-.002-2.996.108-1.07.259-2.181.452-3.331.152-1.098.286-2.148.403-3.149.116-1 .123-1.94.019-2.821-.125-1.065-.485-1.917-1.076-2.552l.069-.008c-.815-.937-1.826-1.335-3.031-1.192-.556.065-1.108.261-1.657.584-.551.323-1.102.729-1.654 1.217-1.207 1.318-2.439 3.015-3.698 5.089-1.259 2.076-2.451 4.213-3.576 6.414-1.127 2.202-2.146 4.318-3.057 6.353s-1.625 3.646-2.142 4.835c-.106.294-.233.616-.38.961-.147.346-.279.621-.396.822-.035.099-.075.162-.118.19-.044.029-.062.066-.058.112.152-.3.218-.543.196-.729-.075-1.024.001-2.278.225-3.762.224-1.483.519-3.068.884-4.757.364-1.688.782-3.417 1.254-5.188s.941-3.459 1.41-5.065c.504-1.704.962-3.286 1.378-4.745.415-1.459.691-2.595.831-3.411.197-1.104-.082-1.975-.838-2.615-.758-.638-1.669-.896-2.734-.77-.65.077-1.313.321-1.993.729-.681.41-1.281.997-1.801 1.764-.802 1.176-1.515 2.787-2.142 4.835-.379 1.237-.707 2.541-.995 3.896-1.016 1.546-2.384 3.183-4.131 4.921-1.851 1.84-3.848 3.521-5.994 5.043s-4.303 2.764-6.468 3.725c-2.166.961-4.081 1.353-5.747 1.173-1.14-.1-2.114-.596-2.924-1.487-.811-.891-1.325-2.263-1.545-4.118-.114-.973-.124-2.146-.028-3.521.096-1.374.306-2.878.63-4.515.244-1.109.013-1.975-.694-2.596-.708-.622-1.618-.866-2.73-.734-.649.077-1.327.31-2.032.697-.706.39-1.345.947-1.916 1.672l-.054.147c-.466 1.23-.767 2.464-.902 3.702-.136 1.238-.132 2.459.01 3.664.176 1.484.553 2.884 1.131 4.201.58 1.318 1.337 2.462 2.274 3.432.937.971 2.049 1.744 3.34 2.319 1.29.577 2.733.864 4.331.863.376.002.74-.005 1.09-.023.351-.017.71-.048 1.082-.092 2.409-.285 4.829-.982 7.259-2.091 2.43-1.109 4.727-2.45 6.892-4.022 2.163-1.571 4.156-3.298 5.978-5.182.034-.035.064-.07.098-.105-.091.943-.179 1.886-.233 2.835-.138 2.413-.095 4.569.13 6.469.044.371.087.729.128 1.077s.104.682.188 1c.123.644.312 1.35.566 2.118.257.768.586 1.469.99 2.104.403.632.91 1.149 1.521 1.547.61.397 1.356.545 2.237.44.74-.087 1.386-.399 1.934-.933.547-.535 1.078-1.209 1.594-2.021.252-.641.667-1.606 1.243-2.896s1.205-2.727 1.888-4.311c.682-1.584 1.395-3.208 2.139-4.87.742-1.662 1.421-3.175 2.035-4.541.614-1.365 1.129-2.471 1.547-3.32.416-.848.653-1.228.711-1.141.051.041.056.169.01.387-.044.217-.1.446-.165.688-.43 1.932-.526 3.893-.291 5.885.148 1.251.485 2.422 1.014 3.51.527 1.09 1.205 2.055 2.034 2.896.827.842 1.802 1.526 2.921 2.051 1.119.526 2.342.828 3.667.906 2.524-.11 5.062-.904 7.612-2.38 2.551-1.475 4.993-3.28 7.326-5.412 2.332-2.132 4.493-4.419 6.484-6.863.023-.029.044-.055.067-.084.086 1.299.353 2.551.823 3.75.539 1.37 1.445 2.285 2.722 2.744.49.177.973.285 1.447.322.474.039.943.03 1.407-.025 1.39-.164 2.733-.722 4.031-1.675 1.297-.952 2.536-2.097 3.718-3.435 1.181-1.338 2.281-2.76 3.302-4.268 1.021-1.505 1.945-2.919 2.776-4.24l1.729-2.671c-.106 1.094-.232 2.507-.38 4.239-.148 1.733-.325 3.622-.529 5.666-.205 2.046-.451 4.142-.736 6.29-.287 2.149-.599 4.182-.936 6.103l.123-.156c-1.147 1.828-2.435 3.964-3.859 6.412-1.427 2.447-2.89 5.075-4.39 7.885-1.501 2.808-2.979 5.72-4.431 8.735-1.452 3.014-2.759 5.976-3.92 8.886-1.159 2.91-2.112 5.677-2.859 8.304-.747 2.625-1.188 4.956-1.323 6.993-.03.943.002 1.808.095 2.597.23 1.946.813 3.298 1.748 4.058.936.759 2.076 1.058 3.42.899 1.067-.126 2.125-.51 3.177-1.151s2.01-1.483 2.874-2.524c2.469-2.97 4.593-6.559 6.376-10.763 1.781-4.205 3.298-8.672 4.548-13.401s2.254-9.56 3.011-14.489c.757-4.93 1.317-9.625 1.684-14.085 1.792-2.326 3.832-4.647 6.12-6.961 2.287-2.314 4.674-4.488 7.159-6.521 2.484-2.032 4.986-3.832 7.504-5.398 2.516-1.565 4.899-2.764 7.151-3.594.586-.21 1.077-.632 1.473-1.267.394-.633.551-1.204.467-1.711-.089-.505-.465-.801-1.132-.887zm-41.003 53.551c-1.281 4.075-2.714 7.758-4.299 11.046-1.356 2.839-2.481 4.945-3.376 6.32-.896 1.374-1.373 1.806-1.433 1.297-.066-.557.058-1.5.37-2.829.312-1.33.88-3.1 1.698-5.311 1.31-3.633 2.891-7.45 4.744-11.451 1.854-4.002 3.756-7.88 5.709-11.635-.996 4.301-2.133 8.488-3.413 12.563zM335.604 131.252c-.094-.389-.232-.784-.42-1.184-1-2.092-2.379-4.008-4.135-5.75-1.758-1.743-3.732-3.354-5.928-4.832-2.197-1.479-4.549-2.8-7.059-3.959s-5.018-2.203-7.523-3.128c-2.508-.927-4.951-1.717-7.33-2.376-2.381-.659-4.537-1.202-6.467-1.632-4.815-.981-9.505-1.707-14.072-2.178-4.566-.47-8.864-.844-12.891-1.12 3.427-.828 7.016-2.074 10.766-3.739 3.751-1.665 7.467-3.619 11.148-5.864 3.683-2.244 7.236-4.767 10.667-7.569 3.428-2.802 6.508-5.762 9.24-8.881 2.734-3.119 5.039-6.375 6.918-9.769 1.877-3.395 3.127-6.82 3.754-10.277.326-2.013.383-3.922.168-5.729-.312-2.642-1.148-4.951-2.51-6.928-1.361-1.977-3.059-3.597-5.086-4.862-2.029-1.264-4.26-2.15-6.693-2.663-2.434-.511-4.902-.619-7.404-.323-2.133.252-4.206.803-6.22 1.651s-3.825 2.027-5.434 3.532c-1.904 1.776-3.662 3.899-5.272 6.368-1.612 2.47-3.083 5.041-4.411 7.71-1.329 2.672-2.528 5.351-3.597 8.038-1.068 2.688-1.99 5.135-2.764 7.34-1.586 4.464-2.999 9.119-4.234 13.964-1.236 4.846-2.39 9.704-3.458 14.576l-.695.082c1.141-6.243 2.397-12.418 3.767-18.524s2.701-11.833 3.996-17.179c1.295-5.345 2.512-10.165 3.648-14.457 1.138-4.293 2.067-7.752 2.793-10.375.426-1.554.755-2.849.984-3.887.229-1.037.359-1.44.387-1.209.405-.94.659-1.77.764-2.486.101-.717.122-1.354.056-1.91-.131-1.113-.558-1.931-1.277-2.458-.722-.524-1.544-.733-2.47-.624-.929.11-1.85.56-2.767 1.35-.918.79-1.577 1.867-1.979 3.229-1.314 4.385-2.602 9.294-3.863 14.73-1.26 5.436-2.464 11.158-3.609 17.167-1.146 6.01-2.217 12.163-3.212 18.459-.994 6.297-1.888 12.453-2.68 18.467-1.418-.067-2.819-.195-4.205-.384s-2.763-.507-4.13-.957c-1.108-.62-2.194-.869-3.261-.743-1.205.143-2.154.654-2.849 1.535-.694.882-.979 1.855-.854 2.92.104.881.61 1.679 1.517 2.394.906.716 2.189 1.14 3.851 1.272 1.14.101 2.285.152 3.437.157 1.152.005 2.318.032 3.499.08.382.05.758.052 1.129.008.37-.044.746-.041 1.129.007-.662 5.53-1.209 10.751-1.638 15.666-.431 4.914-.726 9.472-.887 13.674-.134 3.633-.17 7.009-.107 10.127.062 3.117.245 5.95.547 8.499.269 2.271.659 4.292 1.175 6.064.515 1.772 1.137 3.154 1.865 4.15.802 1.22 1.665 2.069 2.592 2.548.925.477 1.76.673 2.501.585.788-.093 1.417-.438 1.887-1.033.469-.597.656-1.312.558-2.146-.11-.927-.521-1.818-1.232-2.673-1.114-2.265-1.89-5.251-2.328-8.959-.269-2.271-.393-4.817-.374-7.639.02-2.822.195-5.803.529-8.944.483-3.863 1.085-8.304 1.809-13.324.722-5.019 1.635-10.414 2.739-16.184 4.3.197 8.516.486 12.649.867 4.133.382 8.341 1 12.625 1.856l-.069.008c3.612.748 7.298 1.721 11.06 2.922 3.758 1.2 7.301 2.743 10.625 4.63 3.324 1.886 6.295 4.155 8.912 6.806 2.613 2.651 4.602 5.752 5.963 9.304.33.807.762 1.378 1.295 1.715.533.336 1.1.469 1.703.398.834-.099 1.574-.598 2.221-1.496.645-.898.889-2.02.73-3.363-.047-.37-.118-.75-.209-1.138zm-73.473-12.146c-.539 3.4-1.026 6.629-1.464 9.688-.347 3.424-.56 6.692-.639 9.803-.079 3.111-.009 5.993.211 8.645l-1.12.062c-.023-1.784.094-4.275.351-7.478.256-3.202.655-6.879 1.197-11.032.657-6.375 1.599-13.111 2.828-20.211.093-.011.176-.009.247.006.072.016.154.017.247.006-.7 3.608-1.32 7.112-1.858 10.511zm10.902-31.809c1.252-4.519 2.613-8.908 4.083-13.17.59-1.762 1.269-3.674 2.036-5.739.766-2.064 1.636-4.14 2.611-6.229.976-2.089 2.04-4.106 3.197-6.053 1.155-1.945 2.438-3.707 3.852-5.284 1.574-1.783 3.359-3.181 5.354-4.192 1.994-1.011 4.035-1.64 6.12-1.886 1.67-.197 3.299-.119 4.891.232 1.592.352 3.031.98 4.312 1.887 1.281.906 2.361 2.094 3.24 3.564.879 1.471 1.441 3.248 1.688 5.333.043.372.088.753.135 1.147.047.394.049.805.006 1.233-.039 3.247-.682 6.459-1.928 9.638s-2.93 6.221-5.055 9.126c-2.123 2.907-4.617 5.657-7.482 8.25-2.865 2.594-5.963 4.923-9.29 6.983-3.327 2.062-6.795 3.846-10.398 5.352-3.604 1.508-7.195 2.637-10.771 3.388 1.014-4.534 2.147-9.062 3.399-13.58zM410.383 69.161c.646-.076 1.256-.29 1.828-.639.566-.349.984-.797 1.25-1.346.414-1.271.688-2.312.828-3.129.139-.815.18-1.454.125-1.917-.088-.741-.338-1.265-.748-1.568-.414-.304-.92-.42-1.521-.349-.465.055-.971.245-1.52.567-.551.323-1.053.735-1.512 1.236-.457.501-.859 1.065-1.209 1.693-.348.629-.578 1.279-.686 1.949-.219 1.342.023 2.288.725 2.84.698.552 1.512.773 2.44.663z"/>
    <path d="M491.471 66.416c-.465.055-.938.229-1.42.521-.482.292-.877.738-1.182 1.338l.07-.008c-.674 1.066-1.527 2.284-2.564 3.651-1.035 1.368-2.188 2.761-3.453 4.179-1.268 1.419-2.604 2.822-4.014 4.21-1.41 1.389-2.826 2.625-4.248 3.709-1.424 1.084-2.801 1.964-4.129 2.638-1.33.675-2.539 1.004-3.619.992-1.15-.193-2.016-.643-2.592-1.35s-.926-1.57-1.047-2.591c-.109-.926-.109-1.925-.002-2.996.109-1.07.26-2.18.453-3.331.152-1.098.285-2.148.402-3.149.117-1 .123-1.94.02-2.821-.125-1.065-.484-1.917-1.076-2.552l.07-.008c-.816-.936-1.826-1.334-3.031-1.192-.557.066-1.111.261-1.658.584-.551.324-1.102.729-1.654 1.217-1.207 1.318-2.439 3.015-3.699 5.089-1.258 2.076-2.449 4.214-3.576 6.415-1.127 2.201-2.145 4.318-3.057 6.352-.91 2.035-1.623 3.646-2.141 4.835-.105.294-.234.616-.379.961-.148.346-.279.621-.398.822-.035.099-.074.162-.117.19-.045.029-.062.067-.057.112.15-.3.217-.542.195-.728-.074-1.024 0-2.279.225-3.762.223-1.482.52-3.068.883-4.756.363-1.688.783-3.417 1.256-5.188.471-1.771.941-3.459 1.408-5.065.504-1.704.963-3.286 1.379-4.745.414-1.458.691-2.595.83-3.411.197-1.104-.08-1.975-.838-2.615-.758-.639-1.668-.896-2.734-.77-.648.077-1.312.32-1.992.729-.682.41-1.281.997-1.801 1.763-.801 1.176-1.516 2.788-2.143 4.835-.379 1.236-.705 2.54-.994 3.894-1.016 1.547-2.383 3.185-4.131 4.923-1.852 1.84-3.848 3.521-5.994 5.043-2.146 1.522-4.303 2.765-6.469 3.725-2.166.961-4.08 1.353-5.746 1.173-1.141-.1-2.115-.596-2.924-1.487-.811-.891-1.326-2.263-1.545-4.117-.115-.973-.125-2.146-.029-3.521.096-1.374.305-2.878.631-4.515.244-1.109.012-1.975-.695-2.597-.709-.621-1.617-.866-2.73-.734-.648.077-1.326.31-2.031.698-.707.39-1.346.947-1.918 1.672l-.053.147c-.426 1.126-.707 2.256-.857 3.389-2.77.964-5.471 2.025-8.09 3.202-2.768 1.243-5.426 2.604-7.977 4.079-.83-3.049-2.27-5.276-4.312-6.679-2.047-1.403-4.367-1.951-6.963-1.645-1.762.208-3.334.711-4.719 1.509-1.387.799-2.611 1.777-3.672 2.936-1.061 1.16-1.994 2.433-2.791 3.819-.799 1.388-1.494 2.774-2.082 4.158-.4.988-.779 1.96-1.135 2.919-.357.958-.713 1.929-1.066 2.91-.07.197-.131.38-.182.55-.049.171-.111.354-.182.55.057-.711.129-1.495.217-2.352.086-.856.211-1.88.375-3.075.164-1.194.387-2.606.664-4.237.275-1.63.613-3.55 1.01-5.759l-.121.156c1.104-1.775 2.381-3.9 3.828-6.374 1.445-2.473 2.92-5.114 4.42-7.923s2.979-5.72 4.43-8.736c1.453-3.014 2.76-5.976 3.92-8.886 1.16-2.91 2.113-5.677 2.859-8.303.748-2.625 1.189-4.957 1.324-6.994.035-.896.004-1.762-.096-2.596-.229-1.946-.812-3.299-1.748-4.059-.936-.758-2.076-1.059-3.418-.9-1.068.126-2.127.511-3.178 1.151-1.053.642-2.01 1.483-2.875 2.525-2.672 3.23-4.934 7.15-6.785 11.763s-3.387 9.505-4.609 14.677c-1.221 5.173-2.15 10.429-2.789 15.767-.473 3.947-.832 7.731-1.084 11.357-1.793.682-3.764 1.274-5.928 1.772-2.311.532-4.648.937-7.012 1.216-.973.115-1.951.195-2.932.24-.982.046-1.941.078-2.879.094-.494-1.397-1.109-2.324-1.844-2.777-.736-.453-1.475-.637-2.215-.549-.789.093-1.461.467-2.018 1.12-.557.654-.789 1.375-.697 2.162.084.695.416 1.337 1.004 1.925.586.59 1.65 1.051 3.195 1.385-.021.614-.107 1.376-.258 2.286-.152.912-.369 1.866-.65 2.861-.281.998-.625 1.966-1.029 2.906-.408.941-.855 1.722-1.346 2.344-.654.83-1.166 1.266-1.537 1.31-.602.071-1.027-.536-1.271-1.823-.146-.829-.232-1.863-.262-3.105-.029-1.241.029-2.529.178-3.863.148-1.333.377-2.676.686-4.028.311-1.352.73-2.576 1.26-3.673.527-1.095 1.16-2.005 1.898-2.726.734-.722 1.613-1.143 2.635-1.263.695-.082 1.529.031 2.506.338l-.07.008c.652.346 1.332.431 2.039.252.707-.177 1.283-.479 1.727-.909.441-.428.68-.902.713-1.423.031-.521-.279-.954-.93-1.3-1.631-.277-3.209-.326-4.738-.145-1.764.208-3.422.687-4.977 1.434-1.559.748-2.998 1.682-4.322 2.801-1.324 1.121-2.479 2.396-3.459 3.828-.982 1.432-1.754 2.956-2.314 4.573-.455 1.322-.789 2.761-1.006 4.313-.215 1.553-.24 3.048-.07 4.484.105.881.285 1.717.543 2.509.26.792.617 1.537 1.076 2.234.699 1.141 1.613 1.914 2.74 2.32 1.129.407 2.297.539 3.502.396 1.203-.142 2.359-.501 3.467-1.079 1.105-.577 2.01-1.283 2.711-2.118l-.07.008c.787-.892 1.453-1.91 2-3.056.545-1.145.98-2.336 1.305-3.572.322-1.237.557-2.451.697-3.642.141-1.191.176-2.299.1-3.325 1.078-.032 2.152-.078 3.227-.135 1.074-.056 2.215-.156 3.42-.298 2.502-.296 4.943-.713 7.324-1.252 1.287-.292 2.496-.616 3.641-.967-.225 4.623-.305 8.787-.238 12.477.072 3.775.248 6.655.529 8.643.131 1.112.422 1.876.871 2.294.449.417.92.631 1.414.644.496.012.938-.123 1.326-.404.391-.281.586-.609.59-.985.15-1.1.352-2.181.604-3.243.535-2.226 1.135-4.61 1.797-7.156s1.365-4.849 2.107-6.911c.354-.981.83-2.13 1.426-3.446.596-1.315 1.285-2.548 2.066-3.698s1.656-2.087 2.627-2.813c.973-.725 2.033-.992 3.184-.799 1.342.218 2.465 1.083 3.373 2.597.906 1.514 1.396 3.371 1.469 5.571-2.203 1.624-4.402 3.599-6.596 5.925-2.191 2.328-4.156 4.78-5.896 7.358-1.74 2.578-3.105 5.136-4.098 7.674-.992 2.537-1.365 4.849-1.119 6.935.203 1.714.918 3.205 2.15 4.468 1.379 1.341 3.182 1.88 5.406 1.617 1.623-.191 3.367-.926 5.238-2.205 1.869-1.278 3.65-3.099 5.346-5.46 1.693-2.362 3.232-5.246 4.617-8.651 1.383-3.406 2.398-7.333 3.047-11.779.229-1.249.357-2.449.385-3.605.029-1.154.002-2.267-.076-3.339 2.893-1.752 5.818-3.342 8.775-4.773 2.275-1.102 4.506-2.068 6.688-2.908.012.117.008.236.021.353.176 1.484.553 2.885 1.133 4.202.578 1.318 1.334 2.462 2.271 3.432.938.971 2.051 1.744 3.342 2.319 1.289.577 2.732.864 4.33.863.377.003.74-.005 1.09-.023.352-.017.711-.048 1.082-.092 2.41-.285 4.83-.982 7.26-2.092 2.43-1.108 4.727-2.449 6.891-4.021 2.164-1.571 4.156-3.299 5.979-5.182.033-.035.064-.07.098-.105-.092.942-.18 1.886-.234 2.834-.137 2.413-.094 4.569.131 6.469.045.371.086.729.127 1.077s.105.682.189 1c.123.644.312 1.349.566 2.118.256.768.586 1.47.99 2.104.402.632.91 1.149 1.521 1.547.609.397 1.355.544 2.236.44.742-.087 1.387-.399 1.936-.934.545-.535 1.078-1.209 1.592-2.021.252-.642.668-1.607 1.244-2.896s1.205-2.726 1.887-4.311c.684-1.584 1.395-3.207 2.139-4.87.742-1.662 1.422-3.175 2.037-4.541.613-1.365 1.129-2.47 1.545-3.32.416-.848.652-1.228.713-1.141.051.041.055.169.01.387s-.102.446-.166.689c-.43 1.931-.527 3.893-.291 5.885.146 1.251.486 2.422 1.014 3.51.527 1.09 1.205 2.055 2.035 2.896.826.843 1.801 1.526 2.92 2.051 1.119.527 2.342.829 3.668.906 2.523-.109 5.061-.904 7.611-2.38 2.551-1.475 4.994-3.279 7.326-5.412 2.332-2.132 4.492-4.419 6.484-6.864 1.99-2.443 3.666-4.663 5.027-6.656.842-1.227 1.107-2.163.797-2.808-.316-.648-.841-.927-1.581-.839zm-121.836-10.73c1.281-4.075 2.713-7.757 4.299-11.046 1.355-2.839 2.48-4.946 3.377-6.32.893-1.375 1.371-1.807 1.432-1.297.066.556-.059 1.5-.371 2.829s-.879 3.099-1.697 5.311c-1.311 3.633-2.891 7.45-4.744 11.451-1.854 4.002-3.756 7.88-5.709 11.636.993-4.302 2.132-8.489 3.413-12.564zm10.603 40.511c-.025.191-.053.358-.082.502-.031.145-.039.264-.029.356l-.008-.069-.07.008c-.795 3.995-1.691 7.365-2.68 10.114-.992 2.749-1.977 4.957-2.953 6.623-.979 1.667-1.891 2.796-2.736 3.39-.848.594-1.574.714-2.178.363-.555-.312-.885-.929-.994-1.856-.137-1.159.131-2.565.805-4.218.674-1.655 1.586-3.372 2.738-5.152 1.152-1.782 2.447-3.555 3.883-5.322 1.435-1.768 2.871-3.348 4.304-4.739l.072-.573.119-.789.951.31-1.142 1.052zM537.244 78.592c-.459-.298-1.012-.409-1.66-.332-.51.061-1.051.254-1.623.58-.572.326-1.111.743-1.615 1.248-.504.506-.93 1.074-1.279 1.702-.348.629-.578 1.279-.686 1.949-.109.671-.078 1.23.094 1.681.17.449.424.819.764 1.108.34.288.738.487 1.199.598.459.11.943.136 1.453.076.695-.083 1.342-.289 1.938-.617.594-.329 1.025-.768 1.289-1.315.414-1.272.689-2.313.828-3.129.139-.815.182-1.454.127-1.917-.094-.789-.37-1.333-.829-1.632zM556.729 4.287c-.094-.788-.49-1.363-1.189-1.727-.703-.363-1.516-.49-2.443-.381-.695.082-1.387.293-2.076.633-.688.34-1.275.821-1.768 1.442-1.021 1.296-2.004 3.315-2.947 6.059-.945 2.744-1.859 5.953-2.74 9.627-.883 3.676-1.723 7.688-2.525 12.035-.803 4.348-1.551 8.748-2.244 13.2-.699 4.453-1.354 8.854-1.967 13.202-.613 4.349-1.176 8.34-1.686 11.971-.111 1.048-.008 1.823.311 2.325.316.504.707.728 1.172.672.463-.055.949-.405 1.461-1.054.51-.647.883-1.572 1.117-2.775.547-4.106 1.203-8.307 1.965-12.603.76-4.294 1.586-8.528 2.48-12.698.893-4.17 1.818-8.168 2.777-11.994.957-3.825 1.932-7.313 2.922-10.461s1.949-5.869 2.877-8.164c.928-2.294 1.822-3.962 2.686-5.004 1.348-1.712 1.953-3.146 1.817-4.305z"/>
  </g>
</svg>